<svg width="20" height="20" viewBox="0 0 20 20" fill="none" xmlns="http://www.w3.org/2000/svg">
  <path
    d="M14.9241 13.201C14.1745 13.9505 12.6071 15.518 11.5285 16.5965C10.9035 17.2216 9.89112 17.2219 9.26609 16.5969C8.20632 15.5371 6.66924 14 5.87023 13.201C3.37008 10.7009 3.37008 6.64733 5.87023 4.14719C8.37037 1.64704 12.4239 1.64704 14.9241 4.14719C17.4242 6.64733 17.4242 10.7009 14.9241 13.201Z"
    stroke="#A1A1AA" stroke-width="1.60051" stroke-linecap="round" stroke-linejoin="round" />
  <path
    d="M12.7979 8.6741C12.7979 10 11.723 11.0749 10.3971 11.0749C9.07124 11.0749 7.99638 10 7.99638 8.6741C7.99638 7.3482 9.07124 6.27334 10.3971 6.27334C11.723 6.27334 12.7979 7.3482 12.7979 8.6741Z"
    stroke="#A1A1AA" stroke-width="1.60051" stroke-linecap="round" stroke-linejoin="round" />
</svg>