<svg width="30" height="30" viewBox="0 0 30 30" fill="none" xmlns="http://www.w3.org/2000/svg">
  <path
    d="M4.37012 14.62C4.37012 14.38 4.45012 14.17 4.62012 14C4.79012 13.84 5.00012 13.76 5.22012 13.76H7.26012C7.49012 13.76 7.68012 13.84 7.84012 14.01C7.99012 14.18 8.07012 14.38 8.07012 14.62C8.07012 14.86 8.00012 15.06 7.85012 15.23C7.70012 15.4 7.50012 15.48 7.27012 15.48H5.23012C5.00012 15.48 4.80012 15.4 4.63012 15.23C4.46012 15.06 4.37012 14.86 4.37012 14.62ZM7.23012 21.55C7.23012 21.32 7.31012 21.12 7.46012 20.94L8.93012 19.51C9.08012 19.35 9.28012 19.28 9.52012 19.28C9.76012 19.28 9.96012 19.36 10.1201 19.51C10.2801 19.66 10.3601 19.85 10.3601 20.08C10.3601 20.32 10.2801 20.54 10.1201 20.72L8.70012 22.14C8.29012 22.46 7.88012 22.46 7.47012 22.14C7.31012 21.98 7.23012 21.78 7.23012 21.55ZM7.23012 7.71C7.23012 7.48 7.31012 7.28 7.46012 7.1C7.66012 6.93 7.87012 6.85 8.10012 6.85C8.32012 6.85 8.52012 6.93 8.69012 7.09L10.1201 8.56C10.2801 8.71 10.3601 8.91 10.3601 9.15C10.3601 9.39 10.2801 9.59 10.1201 9.75C9.96012 9.91 9.76012 9.99 9.52012 9.99C9.28012 9.99 9.08012 9.91 8.93012 9.75L7.47012 8.32C7.31012 8.16 7.23012 7.95 7.23012 7.71ZM9.78012 14.62C9.78012 13.69 10.0101 12.82 10.4801 12.02C10.9501 11.22 11.5801 10.58 12.3901 10.11C13.2001 9.64 14.0601 9.41 14.9901 9.41C15.6901 9.41 16.3601 9.55 17.0101 9.83C17.6501 10.11 18.2101 10.48 18.6701 10.95C19.1401 11.42 19.5101 11.97 19.7801 12.61C20.0501 13.25 20.1901 13.93 20.1901 14.63C20.1901 15.57 19.9601 16.44 19.4901 17.24C19.0201 18.04 18.3901 18.67 17.5901 19.14C16.7901 19.61 15.9201 19.84 14.9801 19.84C14.0401 19.84 13.1701 19.61 12.3701 19.14C11.5701 18.67 10.9401 18.04 10.4701 17.24C10.0201 16.43 9.78012 15.56 9.78012 14.62ZM11.4801 14.62C11.4801 15.6 11.8201 16.43 12.5101 17.12C13.1901 17.81 14.0201 18.16 15.0001 18.16C15.9801 18.16 16.8101 17.81 17.5001 17.12C18.1901 16.43 18.5401 15.6 18.5401 14.62C18.5401 13.66 18.1901 12.84 17.5001 12.15C16.8101 11.47 15.9801 11.13 15.0001 11.13C14.0301 11.13 13.2001 11.47 12.5201 12.15C11.8201 12.84 11.4801 13.66 11.4801 14.62ZM14.1401 22.4C14.1401 22.16 14.2201 21.96 14.3901 21.8C14.5601 21.64 14.7601 21.56 14.9901 21.56C15.2301 21.56 15.4401 21.64 15.6001 21.8C15.7601 21.96 15.8401 22.16 15.8401 22.4V24.39C15.8401 24.63 15.7601 24.84 15.5901 25.01C15.4201 25.18 15.2201 25.26 14.9901 25.26C14.7601 25.26 14.5501 25.18 14.3901 25.01C14.2201 24.84 14.1401 24.63 14.1401 24.39V22.4ZM14.1401 6.9V4.86C14.1401 4.63 14.2201 4.43 14.3901 4.26C14.5601 4.09 14.7601 4 15.0001 4C15.2401 4 15.4301 4.08 15.6001 4.25C15.7701 4.42 15.8501 4.62 15.8501 4.85V6.9C15.8501 7.13 15.7701 7.32 15.6001 7.48C15.4301 7.64 15.2301 7.71 15.0001 7.71C14.7701 7.71 14.5601 7.63 14.4001 7.48C14.2401 7.33 14.1401 7.13 14.1401 6.9ZM19.6601 20.08C19.6601 19.85 19.7401 19.66 19.8901 19.52C20.0401 19.36 20.2301 19.29 20.4501 19.29C20.6901 19.29 20.8901 19.37 21.0501 19.52L22.5101 20.95C22.6701 21.12 22.7501 21.33 22.7501 21.56C22.7501 21.79 22.6701 21.99 22.5101 22.15C22.1101 22.46 21.7101 22.46 21.3101 22.15L19.8901 20.73C19.7401 20.55 19.6601 20.34 19.6601 20.08ZM19.6601 9.16C19.6601 8.91 19.7401 8.71 19.8901 8.57L21.3101 7.1C21.4801 6.94 21.6801 6.86 21.9001 6.86C22.1401 6.86 22.3401 6.94 22.5001 7.11C22.6701 7.28 22.7501 7.48 22.7501 7.71C22.7501 7.96 22.6701 8.17 22.5101 8.33L21.0501 9.76C20.8701 9.92 20.6701 10 20.4501 10C20.2201 10 20.0401 9.92 19.8901 9.76C19.7401 9.6 19.6601 9.4 19.6601 9.16ZM21.9201 14.62C21.9201 14.38 22.0001 14.18 22.1601 14C22.3201 13.84 22.5101 13.76 22.7301 13.76H24.7501C24.9801 13.76 25.1801 13.85 25.3501 14.02C25.5201 14.19 25.6101 14.39 25.6101 14.62C25.6101 14.85 25.5201 15.05 25.3501 15.22C25.1801 15.39 24.9801 15.47 24.7501 15.47H22.7301C22.5001 15.47 22.3001 15.39 22.1501 15.22C22.0001 15.05 21.9201 14.86 21.9201 14.62Z"
    fill="#F8FAFC" />
</svg>