<svg width="30" height="30" viewBox="0 0 30 30" fill="none" xmlns="http://www.w3.org/2000/svg">
  <path
    d="M20.4562 9.37498C20.7244 9.09523 21.0578 8.88634 21.4264 8.76701C21.7951 8.64767 22.1876 8.62161 22.5689 8.69117C22.9501 8.76072 23.3081 8.92372 23.6109 9.16557C23.9137 9.40742 24.1518 9.72057 24.3039 10.077C24.456 10.4334 24.5173 10.822 24.4824 11.2079C24.4475 11.5939 24.3175 11.9651 24.1039 12.2885C23.8903 12.6119 23.5999 12.8772 23.2587 13.0608C22.9174 13.2444 22.536 13.3406 22.1484 13.3406H5.50781"
    stroke="#F8FAFC" stroke-width="1.40625" stroke-miterlimit="10" stroke-linecap="round" />
  <path
    d="M14.0109 6.34688C14.2791 6.06713 14.6124 5.85824 14.9811 5.7389C15.3498 5.61956 15.7423 5.59351 16.1236 5.66306C16.5048 5.73262 16.8628 5.89561 17.1656 6.13746C17.4684 6.37931 17.7065 6.69246 17.8586 7.04889C18.0107 7.40531 18.072 7.79389 18.0371 8.17983C18.0022 8.56577 17.8722 8.93704 17.6586 9.2604C17.445 9.58376 17.1546 9.84912 16.8134 10.0327C16.4721 10.2163 16.0906 10.3125 15.7031 10.3125H5.625"
    stroke="#F8FAFC" stroke-width="1.40625" stroke-miterlimit="10" stroke-linecap="round" />
  <path
    d="M13.6594 20.625C13.9275 20.9047 14.2609 21.1136 14.6296 21.233C14.9983 21.3523 15.3908 21.3784 15.772 21.3088C16.1532 21.2392 16.5113 21.0762 16.814 20.8344C17.1168 20.5926 17.3549 20.2794 17.507 19.923C17.6591 19.5666 17.7204 19.178 17.6855 18.792C17.6506 18.4061 17.5206 18.0348 17.307 17.7115C17.0935 17.3881 16.8031 17.1227 16.4618 16.9391C16.1205 16.7555 15.7391 16.6594 15.3516 16.6594H5.50781"
    stroke="#F8FAFC" stroke-width="1.40625" stroke-miterlimit="10" stroke-linecap="round" />
</svg>