<svg width="30" height="30" viewBox="0 0 30 30" fill="none" xmlns="http://www.w3.org/2000/svg">
  <path
    d="M9.91016 19.56C9.91016 18.71 10.1102 17.92 10.5002 17.18C10.8902 16.44 11.4402 15.83 12.1502 15.34V5.41999C12.1502 4.61999 12.4202 3.93999 12.9702 3.38999C13.5202 2.83999 14.2002 2.54999 15.0002 2.54999C15.8102 2.54999 16.4902 2.82999 17.0402 3.37999C17.5902 3.93999 17.8702 4.60999 17.8702 5.40999V15.33C18.5802 15.82 19.1202 16.44 19.5102 17.17C19.9002 17.9 20.0902 18.7 20.0902 19.55C20.0902 20.47 19.8602 21.33 19.4102 22.11C18.9602 22.89 18.3402 23.51 17.5602 23.96C16.7802 24.41 15.9302 24.64 15.0002 24.64C14.0802 24.64 13.2302 24.41 12.4502 23.96C11.6702 23.51 11.0502 22.89 10.5902 22.11C10.1302 21.33 9.91016 20.48 9.91016 19.56ZM11.6702 19.56C11.6702 20.49 12.0002 21.29 12.6502 21.95C13.3002 22.61 14.0902 22.94 15.0102 22.94C15.9402 22.94 16.7402 22.61 17.4102 21.94C18.0802 21.27 18.4202 20.48 18.4202 19.57C18.4202 18.95 18.2602 18.37 17.9402 17.84C17.6202 17.31 17.1802 16.9 16.6202 16.61L16.3402 16.47C16.2402 16.43 16.1902 16.33 16.1902 16.18V5.41999C16.1902 5.09999 16.0802 4.82999 15.8502 4.60999C15.6202 4.39999 15.3402 4.28999 15.0002 4.28999C14.6802 4.28999 14.4002 4.39999 14.1702 4.60999C13.9402 4.81999 13.8302 5.08999 13.8302 5.41999V16.16C13.8302 16.31 13.7802 16.41 13.6902 16.45L13.4202 16.59C12.8702 16.88 12.4402 17.29 12.1302 17.82C11.8202 18.35 11.6702 18.92 11.6702 19.56ZM12.4502 19.56C12.4502 20.27 12.6902 20.88 13.1802 21.38C13.6702 21.88 14.2502 22.13 14.9402 22.13C15.6302 22.13 16.2202 21.88 16.7302 21.38C17.2402 20.88 17.4902 20.27 17.4902 19.57C17.4902 18.94 17.2702 18.38 16.8402 17.9C16.4102 17.42 15.8802 17.13 15.2602 17.05V9.68999C15.2602 9.62999 15.2302 9.55999 15.1602 9.49999C15.0902 9.42999 15.0202 9.39999 14.9402 9.39999C14.8502 9.39999 14.7802 9.42999 14.7302 9.47999C14.6802 9.53999 14.6502 9.59999 14.6502 9.68999V17.03C14.0402 17.12 13.5202 17.4 13.0902 17.88C12.6602 18.37 12.4502 18.92 12.4502 19.56Z"
    fill="#F8FAFC" />
</svg>