<svg width="30" height="30" viewBox="0 0 30 30" fill="none" xmlns="http://www.w3.org/2000/svg">
  <path
    d="M7.56006 17.19C7.56006 16.31 7.80006 15.3 8.28006 14.16C8.76006 13.02 9.38006 11.91 10.1401 10.85C11.7001 8.78999 13.0601 7.22999 14.2001 6.17999L14.9501 5.45999C15.2001 5.71999 15.4801 5.95999 15.7801 6.17999C16.1901 6.59999 16.8201 7.28999 17.6601 8.26999C18.5001 9.24999 19.2301 10.12 19.8301 10.92C20.5401 11.93 21.1501 13.02 21.6401 14.17C22.1301 15.32 22.3801 16.33 22.3801 17.2C22.3801 18.2 22.1901 19.15 21.8001 20.06C21.4101 20.97 20.8901 21.76 20.2301 22.42C19.5701 23.08 18.7801 23.61 17.8601 24C16.9401 24.39 15.9701 24.59 14.9501 24.59C13.9501 24.59 13.0001 24.4 12.0901 24.02C11.1801 23.64 10.3901 23.13 9.73006 22.47C9.07006 21.82 8.54006 21.03 8.15006 20.12C7.76006 19.21 7.56006 18.23 7.56006 17.19ZM9.82006 14.26C9.82006 15.09 9.99006 15.75 10.3401 16.25C10.6901 16.74 11.2201 16.99 11.9301 16.99C12.6501 16.99 13.1801 16.74 13.5401 16.25C13.8901 15.76 14.0701 15.1 14.0801 14.26C14.0701 13.42 13.8901 12.76 13.5401 12.26C13.1901 11.77 12.6501 11.52 11.9301 11.52C11.2201 11.52 10.6901 11.77 10.3401 12.26C9.99006 12.76 9.82006 13.42 9.82006 14.26ZM11.3901 14.26C11.3901 14.11 11.3901 13.99 11.3901 13.91C11.3901 13.83 11.4001 13.72 11.4101 13.58C11.4201 13.44 11.4301 13.33 11.4601 13.26C11.4901 13.19 11.5101 13.1 11.5501 13.02C11.5901 12.94 11.6401 12.87 11.7001 12.84C11.7701 12.8 11.8401 12.78 11.9301 12.78C12.0701 12.78 12.1801 12.82 12.2601 12.9C12.3401 12.98 12.4001 13.11 12.4301 13.28C12.4601 13.46 12.4801 13.6 12.4901 13.73C12.5001 13.86 12.5001 14.03 12.5001 14.25C12.5001 14.48 12.5001 14.65 12.4901 14.77C12.4801 14.89 12.4601 15.04 12.4301 15.22C12.4001 15.39 12.3401 15.52 12.2601 15.6C12.1801 15.68 12.0701 15.72 11.9301 15.72C11.8401 15.72 11.7701 15.7 11.7001 15.66C11.6301 15.62 11.5801 15.56 11.5501 15.48C11.5101 15.4 11.4801 15.31 11.4601 15.24C11.4401 15.16 11.4201 15.05 11.4101 14.92C11.4001 14.78 11.3901 14.67 11.3901 14.6C11.3901 14.53 11.3901 14.41 11.3901 14.26ZM11.9801 22.01H13.3001L18.2901 11.27H16.9401L11.9801 22.01ZM16.2801 19.02C16.2901 19.86 16.4801 20.52 16.8301 21.02C17.1801 21.51 17.7201 21.76 18.4301 21.76C19.1501 21.76 19.6801 21.51 20.0301 21.02C20.3801 20.53 20.5501 19.86 20.5601 19.02C20.5501 18.18 20.3801 17.52 20.0301 17.03C19.6801 16.54 19.1501 16.29 18.4301 16.29C17.7201 16.29 17.1801 16.54 16.8301 17.03C16.4701 17.52 16.2901 18.18 16.2801 19.02ZM17.8501 19.02C17.8501 18.79 17.8501 18.62 17.8601 18.5C17.8701 18.38 17.8901 18.23 17.9201 18.05C17.9501 17.87 18.0101 17.75 18.0901 17.67C18.1701 17.59 18.2801 17.55 18.4201 17.55C18.5101 17.55 18.5901 17.57 18.6601 17.61C18.7301 17.65 18.7801 17.71 18.8201 17.8C18.8601 17.89 18.8901 17.97 18.9201 18.04C18.9501 18.11 18.9601 18.22 18.9701 18.36L18.9801 18.68V19.02C18.9801 19.18 18.9801 19.3 18.9801 19.37L18.9701 19.69L18.9201 20.01L18.8201 20.25L18.6601 20.44L18.4201 20.5C18.2801 20.5 18.1701 20.46 18.0901 20.38C18.0101 20.3 17.9501 20.17 17.9201 20C17.8901 19.82 17.8701 19.67 17.8601 19.55C17.8501 19.43 17.8501 19.25 17.8501 19.02Z"
    fill="#F8FAFC" />
</svg>